<?xml version="1.0" encoding="UTF-8"?>
<svg xmlns="http://www.w3.org/2000/svg" xmlns:xlink="http://www.w3.org/1999/xlink" width="42.761pt" height="44.451pt" viewBox="0 0 42.761 44.451">
<defs>
<clipPath id="clip-0">
<path clip-rule="nonzero" d="M 0.144531 0 L 42.382812 0 L 42.382812 43.910156 L 0.144531 43.910156 Z M 0.144531 0 "/>
</clipPath>
<clipPath id="clip-1">
<path clip-rule="nonzero" d="M 22 0 L 37 0 L 37 43.910156 L 22 43.910156 Z M 22 0 "/>
</clipPath>
<clipPath id="clip-2">
<path clip-rule="nonzero" d="M 0.144531 29 L 9 29 L 9 30 L 0.144531 30 Z M 0.144531 29 "/>
</clipPath>
</defs>
<g clip-path="url(#clip-0)">
<path fill="none" stroke-width="0.797" stroke-linecap="butt" stroke-linejoin="miter" stroke="rgb(0%, 0%, 0%)" stroke-opacity="1" stroke-miterlimit="10" d="M 259.561256 0.00173902 C 259.561256 9.678388 251.715538 17.524106 242.034935 17.524106 C 232.358286 17.524106 224.512568 9.678388 224.512568 0.00173902 C 224.512568 -9.678864 232.358286 -17.524582 242.034935 -17.524582 C 251.715538 -17.524582 259.561256 -9.678864 259.561256 0.00173902 Z M 259.561256 0.00173902 " transform="matrix(0.9878, 0, 0, -0.9878, -214.402421, 21.954843)"/>
</g>
<g clip-path="url(#clip-1)">
<path fill="none" stroke-width="0.3985" stroke-linecap="butt" stroke-linejoin="miter" stroke="rgb(0%, 0%, 0%)" stroke-opacity="1" stroke-miterlimit="10" d="M 253.680922 22.028275 L 253.680922 7.637869 L 239.792736 7.637869 M 239.792736 -7.638345 L 253.680922 -7.638345 L 253.680922 -22.024797 " transform="matrix(0.9878, 0, 0, -0.9878, -214.402421, 21.954843)"/>
</g>
<path fill="none" stroke-width="0.797" stroke-linecap="butt" stroke-linejoin="miter" stroke="rgb(0%, 0%, 0%)" stroke-opacity="1" stroke-miterlimit="10" d="M 239.792736 10.91219 L 239.792736 -10.912667 " transform="matrix(0.9878, 0, 0, -0.9878, -214.402421, 21.954843)"/>
<path fill="none" stroke-width="0.3985" stroke-linecap="butt" stroke-linejoin="miter" stroke="rgb(0%, 0%, 0%)" stroke-opacity="1" stroke-miterlimit="10" d="M 225.900596 -7.638345 L 239.792736 -7.638345 M 225.900596 -7.638345 L 225.900596 -7.638345 " transform="matrix(0.9878, 0, 0, -0.9878, -214.402421, 21.954843)"/>
<path fill-rule="nonzero" fill="rgb(0%, 0%, 0%)" fill-opacity="1" d="M 15.0625 29.5 L 15.0625 27.242188 L 20.113281 29.5 L 15.0625 31.761719 Z M 15.0625 29.5 "/>
<g clip-path="url(#clip-2)">
<path fill="none" stroke-width="0.3985" stroke-linecap="butt" stroke-linejoin="miter" stroke="rgb(0%, 0%, 0%)" stroke-opacity="1" stroke-miterlimit="10" d="M 225.900596 -7.638345 L 217.398432 -7.638345 " transform="matrix(0.9878, 0, 0, -0.9878, -214.402421, 21.954843)"/>
</g>
</svg>
